<svg width="150" height="55" viewBox="0 0 150 55" fill="none" xmlns="http://www.w3.org/2000/svg">
<rect width="150" height="55" rx="5" fill="white"/>
<path d="M34.72 29.16C34.72 30.62 34.55 31.81 34.21 32.73C33.89 33.63 33.38 34.32 32.68 34.8C32 35.28 31.13 35.61 30.07 35.79C29.01 35.95 27.74 36.03 26.26 36.03C25.36 36.03 24.5 36.03 23.68 36.03C22.86 36.03 22.09 36.02 21.37 36C20.65 36 19.97 36 19.33 36C18.71 36 18.13 36 17.59 36V24.18C17.59 23.48 17.73 22.98 18.01 22.68C18.29 22.38 18.81 22.22 19.57 22.2C20.09 22.2 20.65 22.2 21.25 22.2C21.87 22.18 22.49 22.17 23.11 22.17C23.75 22.17 24.38 22.17 25 22.17C25.64 22.17 26.23 22.17 26.77 22.17C28.19 22.19 29.4 22.3 30.4 22.5C31.4 22.68 32.22 23.02 32.86 23.52C33.5 24 33.97 24.7 34.27 25.62C34.57 26.52 34.72 27.7 34.72 29.16ZM22.51 33.51C22.71 33.51 22.94 33.51 23.2 33.51C23.48 33.51 23.77 33.52 24.07 33.54C24.39 33.54 24.7 33.54 25 33.54C25.3 33.54 25.56 33.54 25.78 33.54C26.48 33.54 27.08 33.48 27.58 33.36C28.08 33.24 28.48 33.02 28.78 32.7C29.08 32.38 29.3 31.93 29.44 31.35C29.58 30.77 29.65 30.04 29.65 29.16C29.65 27.9 29.52 26.95 29.26 26.31C29.02 25.67 28.61 25.24 28.03 25.02C27.47 24.78 26.68 24.66 25.66 24.66C25.42 24.66 25.11 24.66 24.73 24.66C24.37 24.66 24.01 24.67 23.65 24.69C23.29 24.69 22.98 24.7 22.72 24.72C22.66 24.82 22.61 24.94 22.57 25.08C22.53 25.22 22.51 25.42 22.51 25.68V33.51ZM43.6089 36.18C42.2089 36.18 41.0589 36.1 40.1589 35.94C39.2589 35.76 38.5489 35.46 38.0289 35.04C37.5089 34.62 37.1389 34.03 36.9189 33.27C36.6989 32.51 36.5889 31.52 36.5889 30.3C36.5889 28.74 36.8089 27.5 37.2489 26.58C37.6889 25.66 38.4489 24.99 39.5289 24.57C40.6289 24.15 42.1489 23.94 44.0889 23.94C45.6089 23.94 46.8189 24.1 47.7189 24.42C48.6189 24.74 49.2689 25.24 49.6689 25.92C50.0689 26.6 50.2689 27.47 50.2689 28.53V30.84H41.9289C41.9289 30.42 42.0189 30.07 42.1989 29.79C42.3989 29.49 42.7589 29.34 43.2789 29.34H46.2789L46.2489 28.71C46.2489 27.89 46.0789 27.28 45.7389 26.88C45.4189 26.46 44.8089 26.25 43.9089 26.25C43.1689 26.25 42.5889 26.37 42.1689 26.61C41.7689 26.83 41.4889 27.23 41.3289 27.81C41.1889 28.37 41.1189 29.18 41.1189 30.24C41.1189 31.2 41.2089 31.92 41.3889 32.4C41.5889 32.88 41.9389 33.21 42.4389 33.39C42.9389 33.55 43.6489 33.63 44.5689 33.63C44.9089 33.63 45.3689 33.62 45.9489 33.6C46.5289 33.58 47.1189 33.56 47.7189 33.54C48.3389 33.5 48.8789 33.47 49.3389 33.45C49.8189 33.41 50.1189 33.37 50.2389 33.33V33.87C50.2389 34.15 50.1889 34.45 50.0889 34.77C50.0089 35.07 49.8389 35.32 49.5789 35.52C49.2189 35.8 48.5489 35.98 47.5689 36.06C46.6089 36.14 45.2889 36.18 43.6089 36.18ZM57.1291 36.12C56.0491 36.12 55.1991 36.01 54.5791 35.79C53.9791 35.55 53.5591 35.17 53.3191 34.65C53.0791 34.11 52.9591 33.37 52.9591 32.43V26.37H51.6691V24.03H52.9591V22.5C52.9591 22 52.9891 21.63 53.0491 21.39C53.1291 21.15 53.2791 21 53.4991 20.94C53.7191 20.88 54.0691 20.85 54.5491 20.85H57.4291C57.4291 20.93 57.4291 21.03 57.4291 21.15C57.4291 21.27 57.4291 21.42 57.4291 21.6V24.03H60.3391V26.37H57.4591V32.07C57.4591 32.87 57.5291 33.45 57.6691 33.81C57.8291 34.17 58.2391 34.35 58.8991 34.35C59.0791 34.35 59.3091 34.33 59.5891 34.29C59.8891 34.25 60.0991 34.21 60.2191 34.17V35.82C60.0791 35.84 59.7291 35.9 59.1691 36C58.6291 36.08 57.9491 36.12 57.1291 36.12ZM68.5314 36.15C67.1314 36.15 66.0014 36.1 65.1414 36C64.2814 35.92 63.6114 35.75 63.1314 35.49C62.6714 35.23 62.3614 34.86 62.2014 34.38C62.0414 33.9 61.9614 33.28 61.9614 32.52C61.9614 31.5 62.0614 30.73 62.2614 30.21C62.4614 29.67 62.8114 29.3 63.3114 29.1C63.8114 28.9 64.4814 28.8 65.3214 28.8C65.8214 28.8 66.3914 28.81 67.0314 28.83C67.6914 28.83 68.3314 28.84 68.9514 28.86C69.5914 28.88 70.1414 28.92 70.6014 28.98C71.0814 29.02 71.4114 29.06 71.5914 29.1C71.5914 28.48 71.5314 27.99 71.4114 27.63C71.3114 27.27 71.1414 27 70.9014 26.82C70.6614 26.62 70.3414 26.49 69.9414 26.43C69.5414 26.37 69.0514 26.34 68.4714 26.34C67.7714 26.34 67.0714 26.35 66.3714 26.37C65.6914 26.39 65.0214 26.43 64.3614 26.49C63.7214 26.55 63.1314 26.62 62.5914 26.7V25.86C62.5914 25.32 62.7114 24.92 62.9514 24.66C63.1914 24.4 63.5214 24.23 63.9414 24.15C64.4014 24.05 65.0814 23.98 65.9814 23.94C66.9014 23.9 67.8914 23.88 68.9514 23.88C70.2914 23.88 71.4114 23.95 72.3114 24.09C73.2314 24.23 73.9514 24.48 74.4714 24.84C74.9914 25.2 75.3614 25.74 75.5814 26.46C75.8014 27.16 75.9114 28.1 75.9114 29.28V35.25C75.5914 35.55 74.7914 35.78 73.5114 35.94C72.2514 36.08 70.5914 36.15 68.5314 36.15ZM68.5014 34.29C69.0614 34.29 69.5314 34.28 69.9114 34.26C70.3114 34.22 70.6514 34.17 70.9314 34.11C71.2114 34.05 71.4314 33.98 71.5914 33.9V30.54C71.3714 30.48 71.0614 30.43 70.6614 30.39C70.2814 30.35 69.8914 30.32 69.4914 30.3C69.0914 30.28 68.7814 30.27 68.5614 30.27C68.0814 30.27 67.6914 30.31 67.3914 30.39C67.0914 30.47 66.8714 30.65 66.7314 30.93C66.6114 31.21 66.5514 31.64 66.5514 32.22C66.5514 32.72 66.6014 33.13 66.7014 33.45C66.8014 33.75 66.9914 33.97 67.2714 34.11C67.5514 34.23 67.9614 34.29 68.5014 34.29ZM81.7968 36.12C80.4568 36.12 79.5268 35.86 79.0068 35.34C78.4868 34.82 78.2268 33.97 78.2268 32.79L78.2568 24.03H82.7268V32.61C82.7268 33.23 82.8168 33.68 82.9968 33.96C83.1968 34.22 83.5168 34.35 83.9568 34.35C84.2168 34.35 84.4368 34.33 84.6168 34.29C84.7968 34.25 84.9068 34.22 84.9468 34.2V35.85C84.8668 35.87 84.7168 35.9 84.4968 35.94C84.2768 35.98 83.9568 36.02 83.5368 36.06C83.1168 36.1 82.5368 36.12 81.7968 36.12ZM80.5368 22.59C79.8368 22.59 79.3368 22.5 79.0368 22.32C78.7368 22.14 78.5868 21.81 78.5868 21.33C78.5868 20.85 78.7368 20.52 79.0368 20.34C79.3568 20.14 79.8768 20.04 80.5968 20.04C81.2768 20.06 81.7568 20.16 82.0368 20.34C82.3368 20.52 82.4768 20.85 82.4568 21.33C82.4568 21.81 82.3168 22.14 82.0368 22.32C81.7768 22.5 81.2768 22.59 80.5368 22.59ZM90.4792 36.12C89.0792 36.12 88.0692 35.89 87.4492 35.43C86.8292 34.95 86.5192 34.11 86.5192 32.91V22.47C86.5192 22.03 86.5592 21.69 86.6392 21.45C86.7192 21.21 86.8792 21.05 87.1192 20.97C87.3592 20.89 87.7092 20.85 88.1692 20.85H91.0792C91.0592 20.91 91.0292 21.13 90.9892 21.51C90.9692 21.89 90.9592 22.31 90.9592 22.77V32.4C90.9592 33.12 91.0492 33.63 91.2292 33.93C91.4092 34.21 91.7492 34.35 92.2492 34.35C92.4292 34.35 92.6192 34.33 92.8192 34.29C93.0392 34.25 93.1692 34.22 93.2092 34.2V35.85C93.0692 35.87 92.8092 35.92 92.4292 36C92.0492 36.08 91.3992 36.12 90.4792 36.12ZM100.273 36.12C99.793 36.12 99.283 36.11 98.743 36.09C98.203 36.07 97.663 36.03 97.123 35.97C96.603 35.91 96.123 35.82 95.683 35.7C95.323 35.62 95.023 35.52 94.783 35.4C94.563 35.26 94.393 35.01 94.273 34.65C94.173 34.27 94.123 33.68 94.123 32.88C94.743 33.1 95.383 33.28 96.043 33.42C96.703 33.54 97.343 33.63 97.963 33.69C98.603 33.73 99.193 33.75 99.733 33.75C100.113 33.75 100.523 33.75 100.963 33.75C101.423 33.73 101.863 33.68 102.283 33.6C102.703 33.5 103.053 33.35 103.333 33.15C103.613 32.93 103.753 32.63 103.753 32.25C103.753 31.79 103.633 31.49 103.393 31.35C103.153 31.21 102.833 31.14 102.433 31.14H99.013C98.093 31.14 97.273 31.09 96.553 30.99C95.853 30.89 95.293 30.62 94.873 30.18C94.473 29.72 94.273 28.95 94.273 27.87C94.273 26.69 94.563 25.82 95.143 25.26C95.743 24.68 96.593 24.3 97.693 24.12C98.793 23.94 100.113 23.85 101.653 23.85C102.213 23.85 102.863 23.86 103.603 23.88C104.363 23.9 105.023 23.95 105.583 24.03C106.203 24.09 106.683 24.19 107.023 24.33C107.383 24.45 107.643 24.65 107.803 24.93C107.963 25.19 108.043 25.6 108.043 26.16V27C107.923 26.8 107.613 26.65 107.113 26.55C106.633 26.43 106.043 26.35 105.343 26.31C104.663 26.27 103.943 26.25 103.183 26.25C102.443 26.25 101.753 26.25 101.113 26.25C100.673 26.25 100.263 26.28 99.883 26.34C99.523 26.38 99.233 26.5 99.013 26.7C98.793 26.88 98.683 27.18 98.683 27.6C98.683 27.92 98.753 28.16 98.893 28.32C99.033 28.46 99.223 28.55 99.463 28.59C99.703 28.63 99.973 28.65 100.273 28.65H104.083C104.923 28.65 105.663 28.73 106.303 28.89C106.943 29.03 107.433 29.35 107.773 29.85C108.113 30.33 108.283 31.09 108.283 32.13C108.283 33.33 107.943 34.21 107.263 34.77C106.583 35.33 105.643 35.7 104.443 35.88C103.243 36.04 101.853 36.12 100.273 36.12Z" fill="black"/>
<line y1="-1" x2="21.1716" y2="-1" transform="matrix(0.776357 -0.630293 0.776357 0.630293 118.475 41)" stroke="#FF0000" stroke-width="2"/>
<line y1="-1" x2="21.1716" y2="-1" transform="matrix(-0.776357 -0.630293 0.776357 -0.630293 134.437 27.3442)" stroke="#FF0000" stroke-width="2"/>
</svg>
